<?xml version="1.0" encoding="UTF-8" standalone="no"?>
<svg width="800" height="450" viewBox="0 0 800 450" fill="none" xmlns="http://www.w3.org/2000/svg">
  <!-- Background -->
  <rect width="800" height="450" fill="white"/>
  
  <!-- Container -->
  <rect x="100" y="50" width="600" height="350" rx="4" fill="#F9FAFB"/>
  
  <!-- Top Small Title -->
  <rect x="300" y="80" width="200" height="8" rx="2" fill="#3B82F6"/>
  
  <!-- Main Title -->
  <rect x="250" y="100" width="300" height="12" rx="2" fill="#1F2937"/>
  
  <!-- Description -->
  <rect x="200" y="125" width="400" height="8" rx="2" fill="#6B7280"/>
  <rect x="225" y="140" width="350" height="8" rx="2" fill="#6B7280"/>
  
  <!-- Feature Grid -->
  <!-- Row 1 -->
  <rect x="150" y="190" width="140" height="80" rx="4" fill="#F3F4F6"/>
  <circle cx="170" cy="215" r="10" fill="#3B82F6"/>
  <rect x="190" y="205" width="80" height="8" rx="2" fill="#1F2937"/>
  <rect x="190" y="220" width="70" height="6" rx="2" fill="#6B7280"/>
  <rect x="190" y="235" width="60" height="6" rx="2" fill="#6B7280"/>
  
  <rect x="330" y="190" width="140" height="80" rx="4" fill="#F3F4F6"/>
  <circle cx="350" cy="215" r="10" fill="#3B82F6"/>
  <rect x="370" y="205" width="80" height="8" rx="2" fill="#1F2937"/>
  <rect x="370" y="220" width="70" height="6" rx="2" fill="#6B7280"/>
  <rect x="370" y="235" width="60" height="6" rx="2" fill="#6B7280"/>
  
  <rect x="510" y="190" width="140" height="80" rx="4" fill="#F3F4F6"/>
  <circle cx="530" cy="215" r="10" fill="#3B82F6"/>
  <rect x="550" y="205" width="80" height="8" rx="2" fill="#1F2937"/>
  <rect x="550" y="220" width="70" height="6" rx="2" fill="#6B7280"/>
  <rect x="550" y="235" width="60" height="6" rx="2" fill="#6B7280"/>
  
  <!-- Row 2 -->
  <rect x="150" y="290" width="140" height="80" rx="4" fill="#F3F4F6"/>
  <circle cx="170" cy="315" r="10" fill="#3B82F6"/>
  <rect x="190" y="305" width="80" height="8" rx="2" fill="#1F2937"/>
  <rect x="190" y="320" width="70" height="6" rx="2" fill="#6B7280"/>
  <rect x="190" y="335" width="60" height="6" rx="2" fill="#6B7280"/>
  
  <rect x="330" y="290" width="140" height="80" rx="4" fill="#F3F4F6"/>
  <circle cx="350" cy="315" r="10" fill="#3B82F6"/>
  <rect x="370" y="305" width="80" height="8" rx="2" fill="#1F2937"/>
  <rect x="370" y="320" width="70" height="6" rx="2" fill="#6B7280"/>
  <rect x="370" y="335" width="60" height="6" rx="2" fill="#6B7280"/>
  
  <rect x="510" y="290" width="140" height="80" rx="4" fill="#F3F4F6"/>
  <circle cx="530" cy="315" r="10" fill="#3B82F6"/>
  <rect x="550" y="305" width="80" height="8" rx="2" fill="#1F2937"/>
  <rect x="550" y="320" width="70" height="6" rx="2" fill="#6B7280"/>
  <rect x="550" y="335" width="60" height="6" rx="2" fill="#6B7280"/>
</svg>
