<?xml version="1.0" encoding="UTF-8" standalone="no"?>
<svg width="800" height="450" viewBox="0 0 800 450" fill="none" xmlns="http://www.w3.org/2000/svg">
  <!-- Background -->
  <rect width="800" height="450" fill="white"/>
  
  <!-- Container -->
  <rect x="100" y="50" width="600" height="350" rx="4" fill="#F9FAFB"/>
  
  <!-- Title -->
  <rect x="300" y="70" width="200" height="12" rx="2" fill="#1F2937"/>
  
  <!-- Description -->
  <rect x="250" y="95" width="300" height="8" rx="2" fill="#6B7280"/>
  <rect x="275" y="110" width="250" height="8" rx="2" fill="#6B7280"/>
  
  <!-- Billing Toggle -->
  <rect x="320" y="135" width="160" height="24" rx="12" fill="#E5E7EB"/>
  <rect x="325" y="140" width="70" height="14" rx="7" fill="#4F46E5"/>
  <rect x="350" y="144" width="30" height="6" rx="3" fill="white"/>
  <rect x="420" y="144" width="30" height="6" rx="3" fill="#6B7280"/>
  
  <!-- Pricing Cards -->
  <!-- Starter Card -->
  <rect x="150" y="180" width="150" height="200" rx="4" fill="white" stroke="#E5E7EB"/>
  <rect x="165" y="195" width="80" height="8" rx="2" fill="#1F2937"/>
  <rect x="165" y="215" width="40" height="12" rx="2" fill="#1F2937"/>
  <rect x="210" y="215" width="15" height="12" rx="2" fill="#6B7280"/>
  <rect x="165" y="235" width="100" height="6" rx="2" fill="#6B7280"/>
  
  <!-- Feature list -->
  <rect x="165" y="255" width="8" height="8" rx="4" fill="#10B981"/>
  <rect x="185" y="255" width="80" height="6" rx="2" fill="#6B7280"/>
  
  <rect x="165" y="275" width="8" height="8" rx="4" fill="#10B981"/>
  <rect x="185" y="275" width="80" height="6" rx="2" fill="#6B7280"/>
  
  <rect x="165" y="295" width="8" height="8" rx="4" fill="#10B981"/>
  <rect x="185" y="295" width="80" height="6" rx="2" fill="#6B7280"/>
  
  <rect x="165" y="315" width="8" height="8" rx="4" fill="#CBD5E0"/>
  <rect x="185" y="315" width="80" height="6" rx="2" fill="#CBD5E0"/>
  
  <!-- Button -->
  <rect x="165" y="345" width="120" height="10" rx="2" fill="#E5E7EB" stroke="#6B7280"/>
  
  <!-- Pro Card - Highlighted -->
  <rect x="325" y="170" width="150" height="220" rx="4" fill="white" stroke="#4F46E5" stroke-width="2"/>
  <rect x="325" y="170" width="150" height="10" rx="4" fill="#4F46E5"/>
  
  <rect x="340" y="195" width="80" height="8" rx="2" fill="#1F2937"/>
  <rect x="340" y="215" width="40" height="12" rx="2" fill="#1F2937"/>
  <rect x="385" y="215" width="15" height="12" rx="2" fill="#6B7280"/>
  <rect x="340" y="235" width="100" height="6" rx="2" fill="#6B7280"/>
  
  <!-- Feature list -->
  <rect x="340" y="255" width="8" height="8" rx="4" fill="#10B981"/>
  <rect x="360" y="255" width="80" height="6" rx="2" fill="#6B7280"/>
  
  <rect x="340" y="275" width="8" height="8" rx="4" fill="#10B981"/>
  <rect x="360" y="275" width="80" height="6" rx="2" fill="#6B7280"/>
  
  <rect x="340" y="295" width="8" height="8" rx="4" fill="#10B981"/>
  <rect x="360" y="295" width="80" height="6" rx="2" fill="#6B7280"/>
  
  <rect x="340" y="315" width="8" height="8" rx="4" fill="#10B981"/>
  <rect x="360" y="315" width="80" height="6" rx="2" fill="#6B7280"/>
  
  <rect x="340" y="335" width="8" height="8" rx="4" fill="#10B981"/>
  <rect x="360" y="335" width="80" height="6" rx="2" fill="#6B7280"/>
  
  <!-- Button -->
  <rect x="340" y="365" width="120" height="10" rx="2" fill="#4F46E5"/>
  
  <!-- Enterprise Card -->
  <rect x="500" y="180" width="150" height="200" rx="4" fill="white" stroke="#E5E7EB"/>
  <rect x="515" y="195" width="80" height="8" rx="2" fill="#1F2937"/>
  <rect x="515" y="215" width="60" height="12" rx="2" fill="#1F2937"/>
  <rect x="515" y="235" width="100" height="6" rx="2" fill="#6B7280"/>
  
  <!-- Feature list -->
  <rect x="515" y="255" width="8" height="8" rx="4" fill="#10B981"/>
  <rect x="535" y="255" width="80" height="6" rx="2" fill="#6B7280"/>
  
  <rect x="515" y="275" width="8" height="8" rx="4" fill="#10B981"/>
  <rect x="535" y="275" width="80" height="6" rx="2" fill="#6B7280"/>
  
  <rect x="515" y="295" width="8" height="8" rx="4" fill="#10B981"/>
  <rect x="535" y="295" width="80" height="6" rx="2" fill="#6B7280"/>
  
  <rect x="515" y="315" width="8" height="8" rx="4" fill="#10B981"/>
  <rect x="535" y="315" width="80" height="6" rx="2" fill="#6B7280"/>
  
  <rect x="515" y="335" width="8" height="8" rx="4" fill="#10B981"/>
  <rect x="535" y="335" width="80" height="6" rx="2" fill="#6B7280"/>
  
  <!-- Button -->
  <rect x="515" y="345" width="120" height="10" rx="2" fill="#E5E7EB" stroke="#6B7280"/>
</svg>
