<?xml version="1.0" encoding="UTF-8" standalone="no"?>
<svg width="800" height="450" viewBox="0 0 800 450" fill="none" xmlns="http://www.w3.org/2000/svg">
  <!-- Background -->
  <rect width="800" height="450" fill="white"/>
  
  <!-- Container -->
  <rect x="100" y="50" width="600" height="350" rx="4" fill="#F9FAFB"/>
  
  <!-- Title -->
  <rect x="150" y="80" width="250" height="12" rx="2" fill="#1F2937"/>
  
  <!-- Description -->
  <rect x="150" y="105" width="300" height="8" rx="2" fill="#6B7280"/>
  <rect x="150" y="120" width="250" height="8" rx="2" fill="#6B7280"/>
  
  <!-- Stats Cards -->
  <rect x="150" y="170" width="125" height="100" rx="4" fill="white" stroke="#E5E7EB"/>
  <rect x="165" y="185" width="80" height="6" rx="2" fill="#6B7280"/>
  <rect x="165" y="205" width="50" height="12" rx="2" fill="#1F2937"/>
  <path d="M165 235 L175 225 L185 235" stroke="#10B981" stroke-width="2"/>
  <rect x="190" y="230" width="30" height="6" rx="2" fill="#10B981"/>
  
  <rect x="290" y="170" width="125" height="100" rx="4" fill="white" stroke="#E5E7EB"/>
  <rect x="305" y="185" width="80" height="6" rx="2" fill="#6B7280"/>
  <rect x="305" y="205" width="50" height="12" rx="2" fill="#1F2937"/>
  <path d="M305 235 L315 225 L325 235" stroke="#10B981" stroke-width="2"/>
  <rect x="330" y="230" width="30" height="6" rx="2" fill="#10B981"/>
  
  <rect x="430" y="170" width="125" height="100" rx="4" fill="white" stroke="#E5E7EB"/>
  <rect x="445" y="185" width="80" height="6" rx="2" fill="#6B7280"/>
  <rect x="445" y="205" width="50" height="12" rx="2" fill="#1F2937"/>
  <path d="M445 225 L455 235 L465 225" stroke="#EF4444" stroke-width="2"/>
  <rect x="470" y="230" width="30" height="6" rx="2" fill="#EF4444"/>
  
  <rect x="570" y="170" width="125" height="100" rx="4" fill="white" stroke="#E5E7EB"/>
  <rect x="585" y="185" width="80" height="6" rx="2" fill="#6B7280"/>
  <rect x="585" y="205" width="50" height="12" rx="2" fill="#1F2937"/>
  <path d="M585 235 L595 225 L605 235" stroke="#10B981" stroke-width="2"/>
  <rect x="610" y="230" width="30" height="6" rx="2" fill="#10B981"/>
  
  <!-- Second Row -->
  <rect x="150" y="290" width="125" height="100" rx="4" fill="white" stroke="#E5E7EB"/>
  <rect x="165" y="305" width="80" height="6" rx="2" fill="#6B7280"/>
  <rect x="165" y="325" width="50" height="12" rx="2" fill="#1F2937"/>
  <path d="M165 345 L175 355 L185 345" stroke="#EF4444" stroke-width="2"/>
  <rect x="190" y="350" width="30" height="6" rx="2" fill="#EF4444"/>
  
  <rect x="290" y="290" width="125" height="100" rx="4" fill="white" stroke="#E5E7EB"/>
  <rect x="305" y="305" width="80" height="6" rx="2" fill="#6B7280"/>
  <rect x="305" y="325" width="50" height="12" rx="2" fill="#1F2937"/>
  <path d="M305 345 L315 355 L325 345" stroke="#EF4444" stroke-width="2"/>
  <rect x="330" y="350" width="30" height="6" rx="2" fill="#EF4444"/>
  
  <rect x="430" y="290" width="125" height="100" rx="4" fill="white" stroke="#E5E7EB"/>
  <rect x="445" y="305" width="80" height="6" rx="2" fill="#6B7280"/>
  <rect x="445" y="325" width="50" height="12" rx="2" fill="#1F2937"/>
  <path d="M445 345 L455 335 L465 345" stroke="#10B981" stroke-width="2"/>
  <rect x="470" y="350" width="30" height="6" rx="2" fill="#10B981"/>
  
  <rect x="570" y="290" width="125" height="100" rx="4" fill="white" stroke="#E5E7EB"/>
  <rect x="585" y="305" width="80" height="6" rx="2" fill="#6B7280"/>
  <rect x="585" y="325" width="50" height="12" rx="2" fill="#1F2937"/>
  <path d="M585 345 L595 335 L605 345" stroke="#10B981" stroke-width="2"/>
  <rect x="610" y="350" width="30" height="6" rx="2" fill="#10B981"/>
</svg>
